<svg width="469" height="622" viewBox="0 0 469 622" fill="none" xmlns="http://www.w3.org/2000/svg">
<path d="M223.2 6.86672C210.533 15.1334 162.8 45.2667 140.667 59.0001C131.467 64.7334 96.1333 86.8667 62 108.2L0 147.133V311V474.867L55.3333 509.533C85.7333 528.733 112.667 545.533 115.067 547.133L119.333 549.933V507.933V466.067L95.3333 450.867L71.4667 435.667L71.3333 387.133C71.3333 348.6 71.7333 339 73.0667 340.067C73.8667 340.733 97.4667 355.667 125.333 373.267C153.2 390.867 180.933 408.467 187.067 412.2L198 419.267L198.4 488.2C198.533 526.067 198.533 566.733 198.533 578.467L198.4 599.933L202.533 602.333C204.8 603.667 212.667 608.467 220.133 613.133C227.467 617.8 234 621.667 234.667 621.667C235.2 621.667 243.2 617.133 252.133 611.4L268.667 601.267V490.333V379.267L235.733 358.6C217.467 347.267 185.333 327 164 313.667C142.8 300.333 113.2 281.8 98.2667 272.467L71.3333 255.667L71.6 221.133L72 186.6L82.4 180.067C90.9333 174.733 93.2 173.8 95.3333 175C96.8 175.8 112.267 185.533 129.733 196.6C147.067 207.667 169.733 221.933 180 228.333C213.067 248.867 353.2 337 380.667 354.6L397.333 365.133L397.6 400.467L398 435.667L377.2 448.733C365.867 455.933 355.067 462.467 353.2 463.267L350 464.733V507.267V549.667L365.733 540.067C378.8 531.933 434.267 497.267 460.8 480.467L468.4 475.8L468.8 432.333C469.067 408.467 469.067 334.333 468.8 267.533L468.4 146.067L391.467 98.0667C349.2 71.5334 297.333 39.0001 276 25.6667C254.8 12.2 236.4 1.00005 235.333 0.733382C234.267 0.466716 228.8 3.26672 223.2 6.86672ZM262.4 101.267C277.2 110.6 303.467 126.867 320.667 137.667C337.867 148.333 361.067 162.867 372 169.933C383.067 176.867 393.333 183.267 395.067 184.2L398 185.8V233.667V281.533L345.733 248.467C244 184.333 230.267 175.8 195.067 153.8C175.333 141.667 159.333 131.4 159.333 131C159.467 130.067 233.067 84.3334 234.4 84.3334C235.067 84.3334 247.733 91.9334 262.4 101.267Z" fill="black"/>
</svg>
